<?xml version="1.0" encoding="utf-8"?>
<!-- Generator: Adobe Illustrator 16.0.0, SVG Export Plug-In . SVG Version: 6.00 Build 0)  -->
<!DOCTYPE svg PUBLIC "-//W3C//DTD SVG 1.1//EN" "http://www.w3.org/Graphics/SVG/1.1/DTD/svg11.dtd">
<svg version="1.1" id="Camada_1" xmlns="http://www.w3.org/2000/svg" xmlns:xlink="http://www.w3.org/1999/xlink" x="0px" y="0px"
	 width="629.334px" height="726px" viewBox="81.166 150.5 629.334 726" enable-background="new 81.166 150.5 629.334 726"
	 xml:space="preserve">
<g>
	<path d="M701.815,331.965L399.872,157.638c-2.399-1.386-5.346-1.386-7.753,0L90.185,331.965c-2.399,1.386-3.873,3.944-3.873,6.708
		v348.646c0,2.788,1.474,5.338,3.873,6.716L392.127,868.37c1.203,0.689,2.534,1.03,3.873,1.03c1.338,0,2.677-0.341,3.872-1.038
		l301.927-174.335c2.407-1.378,3.881-3.944,3.881-6.716V338.673C705.688,335.909,704.214,333.351,701.815,331.965z M396,173.295
		l286.442,165.377L396,504.051L109.557,338.673L396,173.295z M101.812,352.097l286.442,165.37v330.763L101.812,682.845V352.097z
		 M403.753,848.229V517.467l286.435-165.37v330.748L403.753,848.229z"/>
</g>
</svg>
